<svg xmlns="http://www.w3.org/2000/svg" viewBox="0 200 1000 500">
  <defs>
    <style>.cls-1{fill:#f0932b;}</style>
  </defs>
  <g id="Layer_2" data-name="Layer 2">
    <g id="Layer_1-2" data-name="Layer 1">
      <path class="cls-1" d="M2060,526.66V555a19.55,19.55,0,0,1-2-2.63c-14.93-26-29.78-52.38-44.79-78.08-49.49-84.73-98.84-170-148.62-253.56-41.1-69-82.72-135.86-124.11-203.65-1.19-2-2.4-3.76-3.6-5.63l-.35,1.48c3.42,6.59,6.8,13.33,10.28,19.73,55.43,102.25,110.65,205.27,166.37,306.41,43.45,78.86,87.51,155.4,131.32,232.89,5.1,9,10.34,17.52,15.52,26.27V628c-.95-1.49-1.93-2.86-2.85-4.47-23.46-41.15-46.8-82.74-70.38-123.4C1939.61,418.78,1892.55,337,1845,257.22c-48.61-81.62-97.73-161.14-146.63-241.56-.89-1.46-1.83-2.74-2.75-4.1a14.32,14.32,0,0,0,1.64,5.23C1738.82,94.2,1780,173.13,1822,248.65c73.94,132.88,148.42,263.69,222.69,395.29,5,8.92,10.22,17.28,15.33,25.9v31.07a27.81,27.81,0,0,1-2.23-3c-13.35-23.71-26.6-47.83-40.06-71.14-70.73-122.5-141.24-245.86-212.36-366.79-48.94-83.22-98.73-163-148.15-244.25-.89-1.47-1.83-2.75-2.75-4.12a13.94,13.94,0,0,0,1.62,5.18c10.69,20.36,21.28,41.1,32.1,61,48,88.32,95.81,177.8,144.35,264.22,72.33,128.76,145.24,255.3,217.91,382.72,3.11,5.45,6.38,10.28,9.57,15.4V775.2c-.73-1.12-1.49-2.15-2.19-3.39-45.31-80.4-90.55-161.09-136-241.12-28.33-49.92-56.76-99.45-85.42-148.08C1786,297,1735.35,212,1684.72,127c-12.12-20.36-24.47-39.78-36.72-59.63V1.2h412V66a27.32,27.32,0,0,1-2.5-3.06c-10.23-16.34-20.46-32.76-30.69-49.12a17.75,17.75,0,0,0-1.69-2l-.3,1.33q17.6,33.21,35.18,66.41v54c-.82-1.1-1.68-2-2.47-3.32q-35.24-57-70.45-114.11c-1-1.59-2-3-3-4.54l-.45,2,76.37,143v45.93c-.73-1.15-1.48-2.27-2.2-3.45q-56.12-91.68-112.22-183.36c-.9-1.46-1.83-2.75-2.75-4.12a14.46,14.46,0,0,0,1.64,5.23c12.92,24.52,25.78,49.3,38.79,73.49,25.53,47.48,51.16,94.64,76.74,141.92v39.18a11.23,11.23,0,0,1-1.14-1.42c-18.15-30.37-36.21-61.11-54.46-91.07-33.44-54.9-67-109.34-100.5-164-.74-1.2-1.55-2.12-2.32-3.18a15.58,15.58,0,0,0,1.75,5.15q69.29,128.78,138.6,257.48c5.94,11,12,21.42,18.07,32.12V341.6c-.52-.78-1.05-1.5-1.55-2.34-31.9-53.75-63.68-108-95.73-161.14-33.14-54.91-66.54-108.7-99.84-163-.8-1.3-1.67-2.28-2.51-3.41a208.16,208.16,0,0,0,10.09,21.09q77.64,143.45,155.31,286.76c11.3,20.82,22.81,40.8,34.23,61.17v31.07c-1.11-1.65-2.25-3.15-3.31-5-36.78-62.48-73.39-125.68-110.38-187.3-41-68.25-82.28-135.06-123.45-202.48-1.19-1.94-2.4-3.76-3.6-5.64a13.83,13.83,0,0,0,1.61,5.29c10,19,20,38.2,30,57.07,65.94,124,132.66,245,199.87,364.26,3.05,5.39,6.18,10.43,9.27,15.63v29.72q-10.12-17.3-20.24-34.59c-45.59-77.71-91-156.15-136.83-232.87-40.55-67.89-81.56-133.88-122.37-200.68-.82-1.34-1.71-2.41-2.57-3.6a15.15,15.15,0,0,0,1.69,5.09c28,52.51,55.69,105.89,83.94,157.33,54,98.38,108.35,195.72,162.59,293.33C2037.38,487.54,2048.73,506.94,2060,526.66Z"/>
      <path class="cls-1" d="M2060,1015.64v66.19H1648V1017a30.13,30.13,0,0,1,2.5,3.1q15.35,24.5,30.69,49.08a16.81,16.81,0,0,0,1.69,2l.3-1.35q-17.6-33.18-35.18-66.38v-54a36.43,36.43,0,0,1,2.25,3q35.13,56.85,70.24,113.75c1.12,1.82,2.3,3.42,3.46,5.12l.43-1.89L1648,926.49V880.56l5.67,9.25q54.72,89.3,109.43,178.58c.67,1.1,1.4,2,2.1,3a14.88,14.88,0,0,0-1.67-5.11c-20.6-38.9-41.15-78-61.83-116.6-17.82-33.25-35.8-65.9-53.7-98.82V811.67c.6.85,1.22,1.59,1.79,2.55,16.41,27.5,32.73,55.37,49.24,82.45,34.83,57.16,69.76,113.91,104.65,170.81.89,1.44,1.81,2.7,2.72,4l.31-1.42c-3.79-7.29-7.54-14.74-11.38-21.86Q1730,927,1664.6,805.91c-5.45-10.09-11.06-19.58-16.6-29.36V741.43c.51.8,1,1.55,1.54,2.39,31.9,53.75,63.68,108,95.73,161.13,33.14,54.9,66.56,108.69,99.85,162.93.8,1.3,1.67,2.27,2.51,3.4a207.13,207.13,0,0,0-10.09-21.09Q1756.2,900,1674.82,750c-8.84-16.29-17.88-31.85-26.82-47.74V671.19a16.4,16.4,0,0,1,1.59,2c29.05,49.5,57.92,99.76,87.18,148.4,49.62,82.46,99.49,163.9,149.25,245.75.9,1.47,1.84,2.75,2.75,4.11a14.27,14.27,0,0,0-1.64-5.22c-10-19-20-38.2-30-57.08-65.92-124.08-132.69-245-199.89-364.25-3-5.39-6.17-10.42-9.26-15.62V599.6c.52.75,1.06,1.41,1.56,2.26,57.67,98.27,115.2,197.17,173.08,294.6,34.5,58.06,69.56,113.81,104.37,170.59,1,1.58,2,3,3,4.49a14.25,14.25,0,0,0-1.64-5.28c-27.82-52.27-55.41-105.42-83.52-156.6-54-98.39-108.34-195.75-162.59-293.36-11.31-20.35-22.81-40-34.22-59.93V528a35.49,35.49,0,0,1,2.45,3.38c7.71,13.45,15.36,27.16,23.12,40.43,63.46,108.44,126.79,217.43,190.47,325,34.4,58.07,69.42,113.6,104.16,170.26,1,1.58,2,3,3,4.5a14.61,14.61,0,0,0-1.63-5.27c-57.54-110.43-116-217.54-174.86-322.87-43.45-77.69-87.13-154.48-130.73-231.59-5.25-9.28-10.63-18-16-27V455.06c.81,1.24,1.64,2.36,2.42,3.72,21.52,37.8,42.93,76.06,64.58,113.37,49.32,85,98.51,170.51,148.2,254,48.52,81.56,97.59,160.91,146.42,241.21.89,1.47,1.84,2.74,2.75,4.11a14.42,14.42,0,0,0-1.63-5.21c-69.39-133.11-140.06-261.44-211.23-387.87-43.1-76.58-86.47-152.19-129.74-228.14-7.19-12.62-14.51-24.73-21.77-37.08V382.12a34.57,34.57,0,0,1,2.44,3.4c58.2,101.93,116.24,204.54,174.65,305.65,42,72.74,84.38,144.06,126.86,214.93,32.78,54.69,66,107.7,99,161.44.87,1.41,1.78,2.63,2.67,3.94a11.41,11.41,0,0,0-1.32-4.57c-41.88-78.05-83.54-156.9-125.7-233.91q-62.49-114.15-125.81-225.23c-50-88-100.32-174.69-150.51-261.92A23.06,23.06,0,0,0,1648,343V307.83c.66,1,1.35,1.84,2,3,49.59,87.87,99,176.32,148.81,263.49q61.93,108.48,124.5,214.48c35.9,61,72.13,120.79,108.25,180.93C2040.94,985.35,2050.51,1000.34,2060,1015.64Z"/>
      <path class="cls-1" d="M1648,79.54c20.84,38.8,41.5,78.27,62.55,116.26C1768,299.46,1825.3,403.57,1883.18,505.48s116.21,201.1,174.36,301.46a35.53,35.53,0,0,0,2.46,3.38v40.53c-18.62-33.81-37.16-67.92-55.87-101.37-35.08-62.72-70-126-105.46-187.36-63.18-109.52-126.61-218-190-326.59-19.18-32.83-38.63-64.52-58-96.71-.86-1.43-1.78-2.6-2.68-3.89Z"/>
      <path class="cls-1" d="M2060,1003.49c-17.53-32.76-35-65.91-52.61-98.19q-49.28-90.1-98.78-179.33c-29.57-53.13-59.2-106-89.07-158-52.65-91.62-105.49-182.47-158.27-273.58-4.35-7.51-8.84-14.46-13.27-21.67V232.18c23.65,42.82,47.2,86,71,128.39,37.17,66.28,74.32,132.6,111.75,197.84q64.93,113.19,130.36,224.44c32,54.54,64.3,107.89,96.47,161.75.78,1.32,1.64,2.34,2.46,3.5Z"/>
      <path class="cls-1" d="M2060,926.49c-32.46-59.21-64.83-118.8-97.42-177.52-33.3-60-66.66-119.76-100.28-178.48-48.83-85.25-97.87-169.65-146.91-254-21.44-36.89-43.11-72.86-64.69-109.19a29,29,0,0,0-2.7-3.44V156.54c49.82,90.21,99.57,180.68,149.49,270.53q37.23,67,74.94,132.08c61.8,106.33,123.76,212,185.66,318,.65,1.1,1.27,2.27,1.91,3.41Z"/>
      <path class="cls-1" d="M2472,526.29v28.37a20.9,20.9,0,0,1-2-2.63c-14.93-26-29.78-52.38-44.79-78.08-49.49-84.73-98.84-170-148.62-253.56-41.1-69-82.72-135.86-124.11-203.66-1.19-1.94-2.4-3.75-3.6-5.63l-.35,1.49c3.42,6.59,6.8,13.33,10.28,19.73,55.43,102.25,110.65,205.27,166.37,306.41,43.45,78.86,87.51,155.4,131.32,232.89,5.1,9,10.34,17.52,15.52,26.27V627.6c-.95-1.48-1.93-2.86-2.85-4.47-23.46-41.14-46.8-82.74-70.38-123.4-47.16-81.31-94.22-163.06-141.75-242.87-48.61-81.62-97.73-161.14-146.63-241.56-.89-1.47-1.83-2.74-2.75-4.11a14.32,14.32,0,0,0,1.64,5.24C2150.82,93.84,2192,172.77,2234,248.29,2307.92,381.16,2382.4,512,2456.67,643.58c5,8.92,10.22,17.28,15.33,25.9v31.07a28.81,28.81,0,0,1-2.23-3c-13.35-23.71-26.6-47.84-40.06-71.14-70.73-122.5-141.24-245.87-212.36-366.8-48.94-83.21-98.73-163-148.15-244.24-.89-1.47-1.83-2.76-2.75-4.13a13.94,13.94,0,0,0,1.62,5.19c10.69,20.36,21.28,41.1,32.1,61,48,88.33,95.81,177.81,144.35,264.23,72.33,128.76,145.24,255.3,217.91,382.72,3.11,5.45,6.38,10.28,9.57,15.4v35.12c-.73-1.13-1.49-2.15-2.19-3.4-45.31-80.39-90.55-161.09-135.95-241.11-28.33-49.93-56.76-99.45-85.42-148.08-50.46-85.66-101.09-170.59-151.72-255.59C2084.6,106.3,2072.25,86.88,2060,67V.83h412V65.67a28.26,28.26,0,0,1-2.5-3.06q-15.35-24.53-30.69-49.12a16.94,16.94,0,0,0-1.69-2.05l-.3,1.33L2472,79.18v54c-.82-1.1-1.68-2.05-2.47-3.32q-35.24-57-70.45-114.11c-1-1.6-2-3-3-4.55l-.45,2,76.37,143V202.1c-.73-1.15-1.48-2.26-2.2-3.45Q2413.68,107,2357.58,15.3c-.9-1.46-1.83-2.75-2.75-4.12a14.39,14.39,0,0,0,1.64,5.22c12.92,24.53,25.78,49.31,38.79,73.5,25.53,47.48,51.16,94.63,76.74,141.92V271a10.44,10.44,0,0,1-1.14-1.41c-18.15-30.37-36.21-61.11-54.46-91.07-33.44-54.9-67-109.35-100.5-164-.74-1.21-1.55-2.13-2.32-3.18a15.43,15.43,0,0,0,1.75,5.14q69.28,128.77,138.6,257.48c5.94,11,12,21.43,18.07,32.12v35.12c-.52-.77-1.05-1.49-1.55-2.34-31.9-53.75-63.68-108-95.73-161.13-33.14-54.91-66.54-108.71-99.84-163-.8-1.3-1.67-2.29-2.51-3.42a206.12,206.12,0,0,0,10.09,21.09q77.64,143.46,155.31,286.77c11.3,20.81,22.81,40.8,34.23,61.17v31.07c-1.11-1.65-2.25-3.15-3.31-5-36.78-62.48-73.39-125.68-110.38-187.3C2317.34,151,2276,84.16,2234.86,16.74c-1.19-1.95-2.4-3.76-3.6-5.64a13.83,13.83,0,0,0,1.61,5.29c10,19,20,38.2,30,57.07,65.94,124,132.66,245,199.87,364.26,3.05,5.39,6.18,10.43,9.27,15.63v29.72q-10.12-17.31-20.24-34.6c-45.59-77.7-91-156.14-136.83-232.87-40.55-67.89-81.56-133.87-122.37-200.67-.82-1.35-1.71-2.41-2.57-3.61a15,15,0,0,0,1.69,5.09c28,52.52,55.69,105.9,83.94,157.33,54,98.39,108.35,195.73,162.59,293.34C2449.38,487.18,2460.73,506.57,2472,526.29Z"/>
      <path class="cls-1" d="M2472,1015.28v66.19H2060v-64.84a31.41,31.41,0,0,1,2.5,3.11q15.35,24.49,30.69,49.08a16.81,16.81,0,0,0,1.69,2l.3-1.35L2060,1003.12v-54a35,35,0,0,1,2.25,3q35.13,56.85,70.24,113.74c1.12,1.83,2.3,3.42,3.46,5.13l.43-1.89L2060,926.13V880.2l5.67,9.25q54.72,89.29,109.43,178.57c.67,1.1,1.4,2,2.1,3a14.81,14.81,0,0,0-1.67-5.1c-20.6-38.9-41.15-78-61.83-116.6-17.82-33.25-35.8-65.91-53.7-98.83V811.31c.6.85,1.22,1.59,1.79,2.55,16.41,27.49,32.73,55.36,49.24,82.45,34.83,57.16,69.76,113.91,104.65,170.81.89,1.44,1.81,2.69,2.72,4l.31-1.42c-3.79-7.3-7.54-14.74-11.38-21.86Q2142,926.65,2076.6,805.55c-5.45-10.09-11.06-19.59-16.6-29.36V741.07c.51.79,1,1.55,1.54,2.39,31.9,53.75,63.68,108,95.73,161.12,33.14,54.91,66.56,108.69,99.85,162.94.8,1.3,1.67,2.27,2.51,3.39a208,208,0,0,0-10.09-21.08q-81.35-150.16-162.72-300.2c-8.84-16.28-17.88-31.84-26.82-47.73V670.83a17,17,0,0,1,1.59,2c29,49.51,57.92,99.77,87.18,148.4,49.62,82.47,99.49,163.91,149.25,245.76.9,1.47,1.84,2.74,2.75,4.11a14.2,14.2,0,0,0-1.64-5.22c-10-19.05-20-38.2-30-57.09-65.92-124.07-132.69-245-199.89-364.24-3-5.39-6.17-10.43-9.26-15.63V599.24c.52.75,1.06,1.41,1.56,2.26,57.67,98.27,115.2,197.17,173.08,294.6,34.5,58.06,69.56,113.81,104.37,170.59,1,1.57,2,3,3,4.49a14.31,14.31,0,0,0-1.64-5.29c-27.82-52.27-55.41-105.41-83.52-156.59-54-98.4-108.34-195.75-162.59-293.36-11.31-20.36-22.81-40-34.22-59.93V527.64a35.67,35.67,0,0,1,2.45,3.39c7.71,13.45,15.36,27.16,23.12,40.42C2149,679.9,2212.36,788.89,2276,896.41c34.4,58.08,69.42,113.6,104.16,170.27,1,1.58,2,3,3,4.5a14.54,14.54,0,0,0-1.63-5.27C2324,955.47,2265.57,848.37,2206.68,743c-43.45-77.7-87.13-154.49-130.73-231.59-5.25-9.28-10.63-18-15.95-27V454.7c.81,1.23,1.64,2.36,2.42,3.72,21.52,37.8,42.93,76.05,64.58,113.37,49.32,85,98.51,170.5,148.2,254,48.52,81.56,97.59,160.9,146.42,241.21.89,1.47,1.84,2.74,2.75,4.1a14.49,14.49,0,0,0-1.63-5.21c-69.39-133.1-140.06-261.43-211.23-387.86-43.1-76.58-86.47-152.2-129.74-228.15-7.19-12.62-14.51-24.73-21.77-37.07V381.76a35.63,35.63,0,0,1,2.44,3.39c58.2,101.94,116.24,204.54,174.65,305.66,42,72.73,84.38,144.06,126.86,214.93,32.78,54.69,66,107.7,99,161.44.87,1.41,1.78,2.63,2.67,3.93a11.41,11.41,0,0,0-1.32-4.56c-41.88-78.06-83.54-156.91-125.7-233.91q-62.49-114.17-125.81-225.23c-50-88-100.32-174.7-150.51-261.92a23.19,23.19,0,0,0-2.24-2.91V307.46c.66,1,1.35,1.85,2,3,49.59,87.88,99,176.33,148.81,263.5q61.93,108.48,124.5,214.48c35.9,61,72.13,120.78,108.25,180.93C2452.94,985,2462.51,1000,2472,1015.28Z"/>
      <path class="cls-1" d="M2060,79.18c20.84,38.8,41.5,78.27,62.55,116.26C2180,299.1,2237.3,403.2,2295.18,505.12c57.79,101.76,116.21,201.09,174.36,301.46A35.53,35.53,0,0,0,2472,810v40.52c-18.62-33.81-37.16-67.91-55.87-101.36-35.08-62.72-70-126-105.46-187.36-63.18-109.53-126.61-218-190-326.59-19.18-32.83-38.63-64.53-58-96.71-.86-1.44-1.78-2.61-2.68-3.9Z"/>
      <path class="cls-1" d="M2472,1003.12c-17.53-32.75-34.95-65.9-52.61-98.18q-49.28-90.11-98.78-179.33c-29.57-53.13-59.2-106-89.07-158C2178.89,476,2126.05,385.12,2073.27,294c-4.35-7.51-8.84-14.46-13.27-21.68V231.82c23.65,42.82,47.2,86,71,128.38,37.17,66.29,74.32,132.61,111.75,197.85q64.93,113.19,130.36,224.43c32,54.55,64.3,107.9,96.47,161.76.78,1.32,1.64,2.34,2.46,3.5Z"/>
      <path class="cls-1" d="M2472,926.13c-32.46-59.21-64.83-118.8-97.42-177.52-33.3-60-66.66-119.77-100.28-178.48-48.83-85.26-97.87-169.66-146.91-254-21.44-36.9-43.11-72.86-64.69-109.2a29.81,29.81,0,0,0-2.7-3.44V156.17c49.82,90.22,99.57,180.69,149.49,270.53q37.23,67,74.94,132.08c61.8,106.34,123.76,212,185.66,318,.65,1.11,1.27,2.28,1.91,3.42Z"/>
      <path class="cls-1" d="M1236,525.82v28.37a20.9,20.9,0,0,1-2-2.63c-14.93-26-29.78-52.38-44.79-78.08-49.49-84.73-98.84-170-148.62-253.57-41.1-69-82.72-135.85-124.11-203.65-1.19-1.94-2.4-3.75-3.6-5.63l-.35,1.49c3.42,6.58,6.8,13.32,10.28,19.73,55.43,102.25,110.65,205.27,166.37,306.41,43.45,78.86,87.51,155.4,131.32,232.88,5.1,9,10.34,17.53,15.52,26.27v29.72c-1-1.48-1.93-2.86-2.85-4.47-23.46-41.14-46.8-82.74-70.38-123.4C1115.61,418,1068.55,336.2,1021,256.39,972.41,174.77,923.29,95.25,874.39,14.83c-.89-1.47-1.83-2.74-2.75-4.11A14.32,14.32,0,0,0,873.28,16C914.82,93.37,956,172.3,998,247.82c73.94,132.87,148.42,263.68,222.69,395.29,5,8.92,10.22,17.28,15.33,25.9v31.07a28.81,28.81,0,0,1-2.23-3c-13.35-23.71-26.6-47.84-40.06-71.14C1123,503.4,1052.47,380,981.35,259.1c-48.94-83.21-98.73-163-148.15-244.24-.89-1.47-1.83-2.76-2.75-4.13a13.94,13.94,0,0,0,1.62,5.19c10.69,20.36,21.28,41.1,32.1,61,48.05,88.33,95.81,177.81,144.35,264.23,72.33,128.76,145.24,255.3,217.91,382.72,3.11,5.45,6.38,10.28,9.57,15.4v35.12c-.73-1.13-1.49-2.15-2.19-3.4-45.31-80.39-90.55-161.09-136-241.11-28.33-49.93-56.76-99.45-85.42-148.09C962,296.12,911.35,211.19,860.72,126.19,848.6,105.83,836.25,86.41,824,66.55V.36h412V65.2a28.26,28.26,0,0,1-2.5-3.06Q1218.16,37.61,1202.81,13a16.94,16.94,0,0,0-1.69-2l-.3,1.33L1236,78.71v54c-.82-1.1-1.68-2.05-2.47-3.32q-35.23-57-70.45-114.11c-1-1.6-2-3-3-4.55l-.45,2,76.37,143v45.93c-.73-1.15-1.48-2.26-2.2-3.45q-56.11-91.67-112.22-183.35c-.9-1.46-1.83-2.75-2.75-4.12a14.39,14.39,0,0,0,1.64,5.22c12.92,24.53,25.78,49.31,38.79,73.5,25.53,47.48,51.16,94.63,76.74,141.92v39.17a10.44,10.44,0,0,1-1.14-1.41c-18.15-30.37-36.21-61.11-54.46-91.07-33.44-54.9-67-109.35-100.5-164-.74-1.21-1.55-2.13-2.32-3.18a15.43,15.43,0,0,0,1.75,5.14q69.29,128.77,138.6,257.48c5.94,11,12,21.43,18.07,32.12v35.12c-.52-.77-1-1.49-1.55-2.34-31.9-53.75-63.68-108-95.73-161.13-33.14-54.91-66.54-108.71-99.84-163-.8-1.3-1.67-2.29-2.51-3.42A206.12,206.12,0,0,0,1046.46,32q77.64,143.46,155.31,286.77c11.3,20.81,22.81,40.8,34.23,61.17V411c-1.11-1.65-2.25-3.15-3.31-5-36.78-62.48-73.39-125.68-110.38-187.3-41-68.25-82.28-135.06-123.45-202.48-1.19-1.95-2.4-3.76-3.6-5.64a13.83,13.83,0,0,0,1.61,5.29c10,19,20,38.2,30,57.07,65.94,124,132.66,245,199.87,364.26,3,5.39,6.18,10.43,9.27,15.63V482.6q-10.12-17.31-20.24-34.6c-45.59-77.7-91-156.14-136.83-232.87-40.55-67.89-81.56-133.87-122.37-200.67-.82-1.35-1.71-2.41-2.57-3.61a15,15,0,0,0,1.69,5.09c28,52.52,55.69,105.9,83.94,157.33,54,98.39,108.35,195.73,162.59,293.34C1213.38,486.71,1224.73,506.1,1236,525.82Z"/>
      <path class="cls-1" d="M1236,1014.81V1081H824v-64.84a31.41,31.41,0,0,1,2.5,3.11q15.35,24.49,30.69,49.08a16.81,16.81,0,0,0,1.69,2l.3-1.35L824,1002.65v-54a35,35,0,0,1,2.25,3q35.13,56.85,70.24,113.74c1.12,1.83,2.3,3.42,3.46,5.12l.43-1.88L824,925.66V879.73l5.67,9.25q54.72,89.29,109.43,178.57c.67,1.1,1.4,2,2.1,3a14.81,14.81,0,0,0-1.67-5.1c-20.6-38.9-41.15-78-61.83-116.6C859.88,915.59,841.9,882.93,824,850V810.84c.6.84,1.22,1.59,1.79,2.55,16.41,27.49,32.73,55.36,49.24,82.45,34.83,57.16,69.76,113.91,104.65,170.81.89,1.44,1.81,2.69,2.72,4l.31-1.42c-3.79-7.3-7.54-14.74-11.38-21.86Q906,926.18,840.6,805.08c-5.45-10.09-11.06-19.59-16.6-29.36V740.6c.51.79,1,1.54,1.54,2.39,31.9,53.75,63.68,108,95.73,161.12,33.14,54.91,66.56,108.69,99.85,162.94.8,1.3,1.67,2.27,2.51,3.39a208,208,0,0,0-10.09-21.08Q932.2,899.2,850.82,749.16C842,732.88,832.94,717.32,824,701.43V670.36a17,17,0,0,1,1.59,2c29,49.51,57.92,99.77,87.18,148.4,49.62,82.47,99.49,163.91,149.25,245.76.9,1.47,1.84,2.74,2.75,4.11a14.2,14.2,0,0,0-1.64-5.22c-10-19-20-38.2-30-57.09-65.92-124.07-132.69-245-199.89-364.24-3-5.39-6.17-10.43-9.26-15.63V598.77c.52.74,1.06,1.41,1.56,2.26,57.67,98.27,115.2,197.17,173.08,294.6,34.5,58.06,69.56,113.81,104.37,170.59,1,1.57,2,3,3,4.49a14.31,14.31,0,0,0-1.64-5.29c-27.82-52.27-55.41-105.41-83.52-156.59-54-98.4-108.34-195.75-162.59-293.36-11.31-20.36-22.81-40-34.22-59.93V527.17a35.67,35.67,0,0,1,2.45,3.39c7.71,13.45,15.36,27.16,23.12,40.42C913,679.43,976.36,788.42,1040,895.94c34.4,58.08,69.42,113.6,104.16,170.27,1,1.58,2,3,3,4.5a14.54,14.54,0,0,0-1.63-5.27C1088,955,1029.57,847.9,970.68,742.57,927.23,664.87,883.55,588.08,840,511c-5.25-9.28-10.63-18-16-27V454.23c.81,1.23,1.64,2.36,2.42,3.72C847.94,495.75,869.35,534,891,571.32c49.32,85,98.51,170.5,148.2,254,48.52,81.56,97.59,160.9,146.42,241.21.89,1.47,1.84,2.74,2.75,4.1a14.49,14.49,0,0,0-1.63-5.21C1117.35,932.34,1046.68,804,975.51,677.58,932.41,601,889,525.38,845.77,449.43c-7.19-12.62-14.51-24.73-21.77-37.07V381.29a35.63,35.63,0,0,1,2.44,3.39c58.2,101.94,116.24,204.54,174.65,305.66,42,72.73,84.38,144.06,126.86,214.93,32.78,54.69,66,107.7,99,161.44.87,1.41,1.78,2.63,2.67,3.93a11.36,11.36,0,0,0-1.32-4.56c-41.88-78.06-83.54-156.91-125.7-233.91Q1040.07,718,976.75,606.94c-50-88-100.32-174.7-150.51-261.92a23.19,23.19,0,0,0-2.24-2.91V307c.66,1,1.35,1.85,2,3,49.59,87.88,99,176.33,148.81,263.5q61.94,108.48,124.5,214.48c35.9,61,72.13,120.78,108.25,180.93C1216.94,984.51,1226.51,999.51,1236,1014.81Z"/>
      <path class="cls-1" d="M824,78.71C844.84,117.51,865.5,157,886.55,195,944,298.63,1001.3,402.73,1059.18,504.65c57.79,101.76,116.21,201.09,174.36,301.46a35.53,35.53,0,0,0,2.46,3.38V850c-18.62-33.81-37.16-67.91-55.87-101.36-35.08-62.72-70-125.95-105.46-187.36-63.18-109.53-126.61-218-190-326.59-19.18-32.83-38.63-64.53-58-96.71-.86-1.44-1.78-2.61-2.68-3.9Z"/>
      <path class="cls-1" d="M1236,1002.65c-17.53-32.75-35-65.9-52.61-98.18q-49.28-90.12-98.78-179.33c-29.57-53.13-59.2-106-89.07-158-52.65-91.62-105.49-182.48-158.27-273.58-4.35-7.51-8.84-14.46-13.27-21.68V231.35c23.65,42.82,47.2,86,71,128.38,37.17,66.29,74.32,132.61,111.75,197.85Q1071.65,670.77,1137.07,782c32,54.55,64.3,107.9,96.47,161.76.78,1.31,1.64,2.34,2.46,3.5Z"/>
      <path class="cls-1" d="M1236,925.66c-32.46-59.21-64.83-118.8-97.42-177.52-33.3-60-66.66-119.77-100.28-178.48-48.83-85.26-97.87-169.66-146.91-254-21.44-36.9-43.11-72.86-64.69-109.2A29.81,29.81,0,0,0,824,203V155.7c49.82,90.22,99.57,180.69,149.49,270.53q37.23,67,74.94,132.08c61.8,106.34,123.76,212,185.66,318,.65,1.11,1.27,2.28,1.91,3.42Z"/>
      <path class="cls-1" d="M1648,525.46v28.37a20.9,20.9,0,0,1-2-2.63c-14.93-26-29.78-52.38-44.79-78.08-49.49-84.73-98.84-170-148.62-253.57-41.1-69-82.72-135.85-124.11-203.65-1.19-1.94-2.4-3.76-3.6-5.63l-.35,1.49c3.42,6.58,6.8,13.32,10.28,19.73,55.43,102.25,110.65,205.27,166.37,306.4,43.45,78.87,87.51,155.4,131.32,232.89,5.1,9,10.34,17.53,15.52,26.27v29.72c-1-1.49-1.93-2.86-2.85-4.47-23.46-41.15-46.8-82.74-70.38-123.4C1527.61,417.58,1480.55,335.83,1433,256c-48.61-81.62-97.73-161.13-146.63-241.55-.89-1.47-1.83-2.74-2.75-4.11a14.45,14.45,0,0,0,1.64,5.24C1326.82,93,1368,171.93,1410,247.46c73.94,132.87,148.42,263.68,222.69,395.29,5,8.92,10.22,17.27,15.33,25.89v31.07a26.87,26.87,0,0,1-2.23-3c-13.35-23.7-26.6-47.83-40.06-71.14C1535,503,1464.47,379.67,1393.35,258.74c-48.94-83.21-98.73-163-148.15-244.24-.89-1.48-1.83-2.76-2.75-4.13a13.94,13.94,0,0,0,1.62,5.19c10.69,20.36,21.28,41.1,32.1,61,48,88.32,95.81,177.81,144.35,264.23,72.33,128.75,145.24,255.29,217.91,382.71,3.11,5.45,6.38,10.29,9.57,15.41V774c-.73-1.13-1.49-2.16-2.19-3.4-45.31-80.4-90.55-161.09-136-241.12-28.33-49.92-56.76-99.45-85.42-148.08-50.46-85.65-101.09-170.59-151.72-255.58C1260.6,105.47,1248.25,86,1236,66.19V0h412V64.84a28.26,28.26,0,0,1-2.5-3.06q-15.35-24.53-30.69-49.13a17.75,17.75,0,0,0-1.69-2.05l-.3,1.34q17.6,33.2,35.18,66.41v54c-.82-1.1-1.68-2.06-2.47-3.33q-35.23-57-70.45-114.11c-1-1.59-2-3-3-4.54l-.45,2,76.37,143v45.93c-.73-1.15-1.48-2.26-2.2-3.45q-56.11-91.68-112.22-183.35c-.9-1.46-1.83-2.75-2.75-4.12a14.46,14.46,0,0,0,1.64,5.22c12.92,24.53,25.78,49.3,38.79,73.5,25.53,47.48,51.16,94.63,76.74,141.92v39.17a11.23,11.23,0,0,1-1.14-1.42c-18.15-30.36-36.21-61.1-54.46-91.06-33.44-54.9-67-109.35-100.5-164-.74-1.21-1.55-2.13-2.32-3.18a15.51,15.51,0,0,0,1.75,5.14q69.29,128.77,138.6,257.48c5.94,11,12,21.43,18.07,32.12V340.4c-.52-.78-1-1.49-1.55-2.34-31.9-53.75-63.68-108-95.73-161.13-33.14-54.92-66.54-108.71-99.84-163-.8-1.3-1.67-2.28-2.51-3.41a208.16,208.16,0,0,0,10.09,21.09q77.64,143.45,155.31,286.77c11.3,20.81,22.81,40.8,34.23,61.16v31.07c-1.11-1.64-2.25-3.15-3.31-5-36.78-62.47-73.39-125.68-110.38-187.3-41-68.24-82.28-135-123.45-202.48-1.19-1.94-2.4-3.76-3.6-5.63a14,14,0,0,0,1.61,5.29c10,19,20,38.2,30,57.07,65.94,124,132.66,245,199.87,364.25,3,5.4,6.18,10.43,9.27,15.64v29.71q-10.12-17.3-20.24-34.59c-45.59-77.7-91-156.14-136.83-232.87-40.55-67.89-81.56-133.87-122.37-200.68-.82-1.34-1.71-2.4-2.57-3.6a15.07,15.07,0,0,0,1.69,5.09c28,52.51,55.69,105.9,83.94,157.33,54,98.39,108.35,195.73,162.59,293.34C1625.38,486.35,1636.73,505.74,1648,525.46Z"/>
      <path class="cls-1" d="M1648,1014.45v66.19H1236V1015.8a30.13,30.13,0,0,1,2.5,3.1q15.35,24.51,30.69,49.09a17.62,17.62,0,0,0,1.69,2l.3-1.35L1236,1002.29v-54a35,35,0,0,1,2.25,3q35.13,56.85,70.24,113.74c1.12,1.82,2.3,3.42,3.46,5.12l.43-1.88L1236,925.3V879.37l5.67,9.25q54.72,89.29,109.43,178.57c.67,1.1,1.4,2,2.1,3a15,15,0,0,0-1.67-5.11c-20.6-38.89-41.15-78-61.83-116.6-17.82-33.24-35.8-65.9-53.7-98.82V810.48c.6.84,1.22,1.59,1.79,2.54,16.41,27.5,32.73,55.37,49.24,82.46,34.83,57.15,69.76,113.9,104.65,170.8.89,1.44,1.81,2.7,2.72,4l.31-1.41c-3.79-7.3-7.54-14.74-11.38-21.87Q1318,925.83,1252.6,804.72c-5.45-10.09-11.06-19.59-16.6-29.36V740.24c.51.79,1,1.54,1.54,2.39,31.9,53.75,63.68,108,95.73,161.12,33.14,54.91,66.56,108.69,99.85,162.94.8,1.29,1.67,2.27,2.51,3.39a208.16,208.16,0,0,0-10.09-21.09Q1344.2,898.84,1262.82,748.8C1254,732.52,1244.94,717,1236,701.06V670a17.17,17.17,0,0,1,1.59,2c29.05,49.5,57.92,99.77,87.18,148.4,49.62,82.46,99.49,163.9,149.25,245.76.9,1.47,1.84,2.74,2.75,4.1a14.27,14.27,0,0,0-1.64-5.22c-10-19-20-38.19-30-57.08-65.92-124.08-132.69-245-199.89-364.24-3-5.4-6.17-10.43-9.26-15.63V598.4c.52.75,1.06,1.42,1.56,2.26,57.67,98.27,115.2,197.18,173.08,294.61,34.5,58.06,69.56,113.81,104.37,170.58,1,1.58,2,3,3,4.5a14.25,14.25,0,0,0-1.64-5.29c-27.82-52.27-55.41-105.42-83.52-156.6-54-98.39-108.34-195.74-162.59-293.36-11.31-20.35-22.81-40-34.22-59.92V526.81a34.43,34.43,0,0,1,2.45,3.39c7.71,13.44,15.36,27.16,23.12,40.42,63.46,108.45,126.79,217.44,190.47,325,34.4,58.07,69.42,113.6,104.16,170.26,1,1.58,2,3,3,4.5a14.47,14.47,0,0,0-1.63-5.26c-57.54-110.44-116-217.55-174.86-322.88-43.45-77.69-87.13-154.48-130.73-231.59-5.25-9.28-10.63-18-16-27V453.87c.81,1.23,1.64,2.35,2.42,3.71,21.52,37.81,42.93,76.06,64.58,113.37,49.32,85,98.51,170.51,148.2,254,48.52,81.57,97.59,160.91,146.42,241.21.89,1.47,1.84,2.75,2.75,4.11a14.42,14.42,0,0,0-1.63-5.21c-69.39-133.1-140.06-261.43-211.23-387.86-43.1-76.59-86.47-152.2-129.74-228.15-7.19-12.62-14.51-24.73-21.77-37.08V380.92a37.14,37.14,0,0,1,2.44,3.4c58.2,101.94,116.24,204.54,174.65,305.66,42,72.73,84.38,144,126.86,214.93,32.78,54.69,66,107.7,99,161.44.87,1.41,1.78,2.62,2.67,3.93a11.3,11.3,0,0,0-1.32-4.56c-41.88-78.06-83.54-156.91-125.7-233.92q-62.49-114.15-125.81-225.22c-50-88-100.32-174.7-150.51-261.93a23.81,23.81,0,0,0-2.24-2.9V306.63c.66,1,1.35,1.85,2,3,49.59,87.88,99,176.32,148.81,263.5q61.93,108.48,124.5,214.47c35.9,61,72.13,120.79,108.25,180.93C1628.94,984.15,1638.51,999.15,1648,1014.45Z"/>
      <path class="cls-1" d="M1236,78.35c20.84,38.79,41.5,78.26,62.55,116.26C1356,298.27,1413.3,402.37,1471.18,504.29c57.79,101.76,116.21,201.09,174.36,301.46a36.85,36.85,0,0,0,2.46,3.38v40.52c-18.62-33.81-37.16-67.92-55.87-101.37-35.08-62.71-70-125.95-105.46-187.35-63.18-109.53-126.61-218-190-326.59-19.18-32.84-38.63-64.53-58-96.72-.86-1.43-1.78-2.6-2.68-3.89Z"/>
      <path class="cls-1" d="M1648,1002.29c-17.53-32.76-35-65.9-52.61-98.19q-49.28-90.11-98.78-179.32c-29.57-53.14-59.2-106-89.07-158-52.65-91.62-105.49-182.48-158.27-273.58-4.35-7.51-8.84-14.47-13.27-21.68V231c23.65,42.82,47.2,86,71,128.38,37.17,66.28,74.32,132.61,111.75,197.85q64.93,113.17,130.36,224.43c32,54.54,64.3,107.9,96.47,161.76.78,1.31,1.64,2.34,2.46,3.5Z"/>
      <path class="cls-1" d="M1648,925.3c-32.46-59.21-64.83-118.8-97.42-177.52-33.3-60-66.66-119.77-100.28-178.49-48.83-85.25-97.87-169.65-146.91-254-21.44-36.89-43.11-72.85-64.69-109.19a29,29,0,0,0-2.7-3.44V155.34c49.82,90.21,99.57,180.69,149.49,270.53q37.23,67,74.94,132.08c61.8,106.33,123.76,212,185.66,318,.65,1.11,1.27,2.28,1.91,3.42Z"/>
      <path class="cls-1" d="M412,525.82v28.37a20.9,20.9,0,0,1-2-2.63c-14.93-26-29.78-52.38-44.79-78.08-49.49-84.73-98.84-170-148.62-253.57-41.1-69-82.72-135.85-124.11-203.65-1.19-1.94-2.4-3.75-3.6-5.63l-.35,1.49c3.42,6.58,6.8,13.32,10.28,19.73C154.22,134.1,209.44,237.12,265.16,338.26c43.45,78.86,87.51,155.4,131.32,232.88,5.1,9,10.34,17.53,15.52,26.27v29.72c-.95-1.48-1.93-2.86-2.85-4.47-23.46-41.14-46.8-82.74-70.38-123.4C291.61,418,244.55,336.2,197,256.39,148.41,174.77,99.29,95.25,50.39,14.83c-.89-1.47-1.83-2.74-2.75-4.11A14.32,14.32,0,0,0,49.28,16C90.82,93.37,132,172.3,174,247.82,247.92,380.69,322.4,511.5,396.67,643.11c5,8.92,10.22,17.28,15.33,25.9v31.07a28.81,28.81,0,0,1-2.23-3c-13.35-23.71-26.6-47.84-40.06-71.14C299,503.4,228.47,380,157.35,259.1,108.41,175.89,58.62,96.14,9.2,14.86c-.89-1.47-1.83-2.76-2.75-4.13a13.94,13.94,0,0,0,1.62,5.19c10.69,20.36,21.28,41.1,32.1,61C88.22,165.23,136,254.71,184.52,341.13c72.33,128.76,145.24,255.3,217.91,382.72,3.11,5.45,6.38,10.28,9.57,15.4v35.12c-.73-1.13-1.49-2.15-2.19-3.4-45.31-80.39-90.55-161.09-135.95-241.11-28.33-49.93-56.76-99.45-85.42-148.09C138,296.12,87.35,211.19,36.72,126.19,24.6,105.83,12.25,86.41,0,66.55V.36H412V65.2a28.26,28.26,0,0,1-2.5-3.06Q394.16,37.61,378.81,13a16.94,16.94,0,0,0-1.69-2l-.3,1.33L412,78.71v54c-.82-1.1-1.68-2.05-2.47-3.32q-35.23-57-70.45-114.11c-1-1.6-2-3-3-4.55l-.45,2L412,155.7v45.93c-.73-1.15-1.48-2.26-2.2-3.45Q353.68,106.51,297.58,14.83c-.9-1.46-1.83-2.75-2.75-4.12a14.39,14.39,0,0,0,1.64,5.22c12.92,24.53,25.78,49.31,38.79,73.5,25.53,47.48,51.16,94.63,76.74,141.92v39.17a10.44,10.44,0,0,1-1.14-1.41C392.71,238.74,374.65,208,356.4,178c-33.44-54.9-67-109.35-100.5-164-.74-1.21-1.55-2.13-2.32-3.18A15.43,15.43,0,0,0,255.33,16q69.28,128.77,138.6,257.48c5.94,11,12,21.43,18.07,32.12v35.12c-.52-.77-1.05-1.49-1.55-2.34-31.9-53.75-63.68-108-95.73-161.13-33.14-54.91-66.54-108.71-99.84-163-.8-1.3-1.67-2.29-2.51-3.42A206.12,206.12,0,0,0,222.46,32Q300.1,175.46,377.77,318.77c11.3,20.81,22.81,40.8,34.23,61.17V411c-1.11-1.65-2.25-3.15-3.31-5-36.78-62.48-73.39-125.68-110.38-187.3C257.34,150.5,216,83.69,174.86,16.27c-1.19-1.95-2.4-3.76-3.6-5.64a13.83,13.83,0,0,0,1.61,5.29c10,19,19.95,38.2,30,57.07C268.8,197,335.52,318,402.73,437.25c3,5.39,6.18,10.43,9.27,15.63V482.6q-10.12-17.31-20.24-34.6c-45.59-77.7-91-156.14-136.83-232.87C214.38,147.24,173.37,81.26,132.56,14.46c-.82-1.35-1.71-2.41-2.57-3.61a15,15,0,0,0,1.69,5.09c28,52.52,55.69,105.9,83.94,157.33C269.66,271.66,324,369,378.21,466.61,389.38,486.71,400.73,506.1,412,525.82Z"/>
      <path class="cls-1" d="M412,1014.81V1081H0v-64.84a31.41,31.41,0,0,1,2.5,3.11q15.35,24.49,30.69,49.08a16.81,16.81,0,0,0,1.69,2l.3-1.35L0,1002.65v-54a35,35,0,0,1,2.25,3q35.13,56.85,70.24,113.74c1.12,1.83,2.3,3.42,3.46,5.12l.43-1.88L0,925.66V879.73L5.67,889q54.72,89.29,109.43,178.57c.67,1.1,1.4,2,2.1,3a14.81,14.81,0,0,0-1.67-5.1c-20.6-38.9-41.15-78-61.83-116.6C35.88,915.59,17.9,882.93,0,850V810.84c.6.84,1.22,1.59,1.79,2.55C18.2,840.88,34.52,868.75,51,895.84c34.83,57.16,69.76,113.91,104.65,170.81.89,1.44,1.81,2.69,2.72,4l.31-1.42c-3.79-7.3-7.54-14.74-11.38-21.86Q82,926.18,16.6,805.08C11.15,795,5.54,785.49,0,775.72V740.6c.51.79,1,1.54,1.54,2.39,31.9,53.75,63.68,108,95.73,161.12,33.14,54.91,66.56,108.69,99.85,162.94.8,1.3,1.67,2.27,2.51,3.39a208,208,0,0,0-10.09-21.08Q108.2,899.2,26.82,749.16C18,732.88,8.94,717.32,0,701.43V670.36a17,17,0,0,1,1.59,2c29.05,49.51,57.92,99.77,87.18,148.4C138.39,903.26,188.26,984.7,238,1066.55c.9,1.47,1.84,2.74,2.75,4.11a14.2,14.2,0,0,0-1.64-5.22c-10-19-19.95-38.2-30-57.09C143.23,884.28,76.46,763.36,9.26,644.11c-3-5.39-6.17-10.43-9.26-15.63V598.77c.52.74,1.06,1.41,1.56,2.26,57.67,98.27,115.2,197.17,173.08,294.6,34.5,58.06,69.56,113.81,104.37,170.59,1,1.57,2,3,3,4.49a14.31,14.31,0,0,0-1.64-5.29c-27.82-52.27-55.41-105.41-83.52-156.59-54-98.4-108.34-195.75-162.59-293.36C22.91,595.11,11.41,575.5,0,555.54V527.17a35.67,35.67,0,0,1,2.45,3.39C10.16,544,17.81,557.72,25.57,571,89,679.43,152.36,788.42,216,895.94c34.4,58.08,69.42,113.6,104.16,170.27,1,1.58,2,3,3,4.5a14.54,14.54,0,0,0-1.63-5.27C264,955,205.57,847.9,146.68,742.57,103.23,664.87,59.55,588.08,16,511,10.7,501.7,5.32,492.94,0,484V454.23c.81,1.23,1.64,2.36,2.42,3.72C23.94,495.75,45.35,534,67,571.32c49.32,85,98.51,170.5,148.2,254,48.52,81.56,97.59,160.9,146.42,241.21.89,1.47,1.84,2.74,2.75,4.1a14.49,14.49,0,0,0-1.63-5.21C293.35,932.34,222.68,804,151.51,677.58,108.41,601,65,525.38,21.77,449.43,14.58,436.81,7.26,424.7,0,412.36V381.29a35.63,35.63,0,0,1,2.44,3.39c58.2,101.94,116.24,204.54,174.65,305.66,42,72.73,84.38,144.06,126.86,214.93,32.78,54.69,66,107.7,99,161.44.87,1.41,1.78,2.63,2.67,3.93a11.36,11.36,0,0,0-1.32-4.56C362.38,988,320.72,909.17,278.56,832.17Q216.07,718,152.75,606.94c-50-88-100.32-174.7-150.51-261.92A23.19,23.19,0,0,0,0,342.11V307c.66,1,1.35,1.85,2,3,49.59,87.88,99,176.33,148.81,263.5q61.94,108.48,124.5,214.48c35.9,61,72.13,120.78,108.25,180.93C392.94,984.51,402.51,999.51,412,1014.81Z"/>
      <path class="cls-1" d="M0,78.71C20.84,117.51,41.5,157,62.55,195,120,298.63,177.3,402.73,235.18,504.65,293,606.41,351.39,705.74,409.54,806.11a35.53,35.53,0,0,0,2.46,3.38V850c-18.62-33.81-37.16-67.91-55.87-101.36-35.08-62.72-70-125.95-105.46-187.36-63.18-109.53-126.61-218-190-326.59C41.47,201.87,22,170.17,2.68,138c-.86-1.44-1.78-2.61-2.68-3.9Z"/>
      <path class="cls-1" d="M412,1002.65c-17.53-32.75-34.95-65.9-52.61-98.18q-49.27-90.12-98.78-179.33c-29.57-53.13-59.2-106-89.07-158C118.89,475.51,66.05,384.65,13.27,293.55,8.92,286,4.43,279.09,0,271.87V231.35c23.65,42.82,47.2,86,71,128.38C108.13,426,145.28,492.34,182.71,557.58Q247.65,670.77,313.07,782c32,54.55,64.3,107.9,96.47,161.76.78,1.31,1.64,2.34,2.46,3.5Z"/>
      <path class="cls-1" d="M412,925.66c-32.46-59.21-64.83-118.8-97.42-177.52-33.3-60-66.66-119.77-100.28-178.48C165.47,484.4,116.43,400,67.39,315.62,46,278.72,24.28,242.76,2.7,206.42A29.81,29.81,0,0,0,0,203V155.7c49.82,90.22,99.57,180.69,149.49,270.53q37.23,67,74.94,132.08c61.8,106.34,123.76,212,185.66,318,.65,1.11,1.27,2.28,1.91,3.42Z"/>
      <path class="cls-1" d="M824,525.46v28.37a20.9,20.9,0,0,1-2-2.63c-14.93-26-29.78-52.38-44.79-78.08-49.49-84.73-98.84-170-148.62-253.57-41.1-69-82.72-135.85-124.11-203.65-1.19-1.94-2.4-3.76-3.6-5.63l-.35,1.49c3.42,6.58,6.8,13.32,10.28,19.73,55.43,102.25,110.65,205.27,166.37,306.4,43.45,78.87,87.51,155.4,131.32,232.89,5.1,9,10.34,17.53,15.52,26.27v29.72c-1-1.49-1.93-2.86-2.85-4.47-23.46-41.15-46.8-82.74-70.38-123.4C703.61,417.58,656.55,335.83,609,256,560.41,174.4,511.29,94.89,462.39,14.47c-.89-1.47-1.83-2.74-2.75-4.11a14.45,14.45,0,0,0,1.64,5.24C502.82,93,544,171.93,586,247.46,659.92,380.33,734.4,511.14,808.67,642.75c5,8.92,10.22,17.27,15.33,25.89v31.07a26.87,26.87,0,0,1-2.23-3c-13.35-23.7-26.6-47.83-40.06-71.14C711,503,640.47,379.67,569.35,258.74c-48.94-83.21-98.73-163-148.15-244.24-.89-1.48-1.83-2.76-2.75-4.13a13.94,13.94,0,0,0,1.62,5.19c10.69,20.36,21.28,41.1,32.1,61C500.22,164.86,548,254.35,596.52,340.77c72.33,128.75,145.24,255.29,217.91,382.71,3.11,5.45,6.38,10.29,9.57,15.41V774c-.73-1.13-1.49-2.16-2.19-3.4-45.31-80.4-90.55-161.09-135.95-241.12C657.53,479.57,629.1,430,600.44,381.41,550,295.76,499.35,210.82,448.72,125.83,436.6,105.47,424.25,86,412,66.19V0H824V64.84a28.26,28.26,0,0,1-2.5-3.06q-15.35-24.53-30.69-49.13a17.75,17.75,0,0,0-1.69-2.05l-.3,1.34Q806.42,45.14,824,78.35v54c-.82-1.1-1.68-2.06-2.47-3.33Q786.3,72,751.08,14.94c-1-1.59-2-3-3-4.54l-.45,2,76.37,143v45.93c-.73-1.15-1.48-2.26-2.2-3.45Q765.69,106.14,709.58,14.47c-.9-1.46-1.83-2.75-2.75-4.12a14.46,14.46,0,0,0,1.64,5.22c12.92,24.53,25.78,49.3,38.79,73.5C772.79,136.55,798.42,183.7,824,231v39.17a11.23,11.23,0,0,1-1.14-1.42c-18.15-30.36-36.21-61.1-54.46-91.06-33.44-54.9-67-109.35-100.5-164-.74-1.21-1.55-2.13-2.32-3.18a15.51,15.51,0,0,0,1.75,5.14q69.28,128.77,138.6,257.48c5.94,11,12,21.43,18.07,32.12V340.4c-.52-.78-1-1.49-1.55-2.34-31.9-53.75-63.68-108-95.73-161.13C693.58,122,660.18,68.22,626.88,14c-.8-1.3-1.67-2.28-2.51-3.41a208.16,208.16,0,0,0,10.09,21.09Q712.1,175.08,789.77,318.41c11.3,20.81,22.81,40.8,34.23,61.16v31.07c-1.11-1.64-2.25-3.15-3.31-5C783.91,343.21,747.3,280,710.31,218.38c-41-68.24-82.28-135-123.45-202.48-1.19-1.94-2.4-3.76-3.6-5.63a14,14,0,0,0,1.61,5.29c10,19,20,38.2,30,57.07,65.94,124,132.66,245,199.87,364.25,3,5.4,6.18,10.43,9.27,15.64v29.71q-10.12-17.3-20.24-34.59c-45.59-77.7-91-156.14-136.83-232.87C626.38,146.88,585.37,80.9,544.56,14.09c-.82-1.34-1.71-2.4-2.57-3.6a15.07,15.07,0,0,0,1.69,5.09c28,52.51,55.69,105.9,83.94,157.33,54,98.39,108.35,195.73,162.59,293.34C801.38,486.35,812.73,505.74,824,525.46Z"/>
      <path class="cls-1" d="M824,1014.45v66.19H412V1015.8a30.13,30.13,0,0,1,2.5,3.1q15.35,24.51,30.69,49.09a17.62,17.62,0,0,0,1.69,2l.3-1.35L412,1002.29v-54a35,35,0,0,1,2.25,3q35.13,56.85,70.24,113.74c1.12,1.82,2.3,3.42,3.46,5.12l.43-1.88L412,925.3V879.37l5.67,9.25q54.72,89.29,109.43,178.57c.67,1.1,1.4,2,2.1,3a15,15,0,0,0-1.67-5.11c-20.6-38.89-41.15-78-61.83-116.6-17.82-33.24-35.8-65.9-53.7-98.82V810.48c.6.84,1.22,1.59,1.79,2.54,16.41,27.5,32.73,55.37,49.24,82.46,34.83,57.15,69.76,113.9,104.65,170.8.89,1.44,1.81,2.7,2.72,4l.31-1.41c-3.79-7.3-7.54-14.74-11.38-21.87Q494,925.83,428.6,804.72c-5.45-10.09-11.06-19.59-16.6-29.36V740.24c.51.79,1,1.54,1.54,2.39,31.9,53.75,63.68,108,95.73,161.12,33.14,54.91,66.56,108.69,99.85,162.94.8,1.29,1.67,2.27,2.51,3.39A208.16,208.16,0,0,0,601.54,1049Q520.19,898.84,438.82,748.8C430,732.52,420.94,717,412,701.06V670a17.17,17.17,0,0,1,1.59,2c29.05,49.5,57.92,99.77,87.18,148.4,49.62,82.46,99.49,163.9,149.25,245.76.9,1.47,1.84,2.74,2.75,4.1a14.27,14.27,0,0,0-1.64-5.22c-10-19-20-38.19-30-57.08C555.23,883.91,488.46,763,421.26,643.75c-3-5.4-6.17-10.43-9.26-15.63V598.4c.52.75,1.06,1.42,1.56,2.26,57.67,98.27,115.2,197.18,173.08,294.61,34.5,58.06,69.56,113.81,104.37,170.58,1,1.58,2,3,3,4.5a14.25,14.25,0,0,0-1.64-5.29c-27.82-52.27-55.41-105.42-83.52-156.6-54-98.39-108.34-195.74-162.59-293.36-11.31-20.35-22.81-40-34.22-59.92V526.81a34.43,34.43,0,0,1,2.45,3.39c7.71,13.44,15.36,27.16,23.12,40.42C501,679.07,564.36,788.06,628,895.58c34.4,58.07,69.42,113.6,104.16,170.26,1,1.58,2,3,3,4.5a14.47,14.47,0,0,0-1.63-5.26C676,954.64,617.57,847.53,558.68,742.2,515.23,664.51,471.55,587.72,428,510.61c-5.25-9.28-10.63-18-15.95-27V453.87c.81,1.23,1.64,2.35,2.42,3.71C435.94,495.39,457.35,533.64,479,571c49.32,85,98.51,170.51,148.2,254,48.52,81.57,97.59,160.91,146.42,241.21.89,1.47,1.84,2.75,2.75,4.11a14.42,14.42,0,0,0-1.63-5.21C705.35,932,634.68,803.65,563.51,677.22,520.41,600.63,477,525,433.77,449.07,426.58,436.45,419.26,424.34,412,412V380.92a37.14,37.14,0,0,1,2.44,3.4C472.64,486.26,530.68,588.86,589.09,690c42,72.73,84.38,144,126.86,214.93,32.78,54.69,66,107.7,99,161.44.87,1.41,1.78,2.62,2.67,3.93a11.3,11.3,0,0,0-1.32-4.56c-41.88-78.06-83.54-156.91-125.7-233.92Q628.07,717.65,564.75,606.58c-50-88-100.32-174.7-150.51-261.93a23.81,23.81,0,0,0-2.24-2.9V306.63c.66,1,1.35,1.85,2,3,49.59,87.88,99,176.32,148.81,263.5q61.94,108.48,124.5,214.47c35.9,61,72.13,120.79,108.25,180.93C804.94,984.15,814.51,999.15,824,1014.45Z"/>
      <path class="cls-1" d="M412,78.35c20.84,38.79,41.5,78.26,62.55,116.26C532,298.27,589.3,402.37,647.18,504.29,705,606.05,763.39,705.38,821.54,805.75a36.85,36.85,0,0,0,2.46,3.38v40.52c-18.62-33.81-37.16-67.92-55.87-101.37-35.08-62.71-70-125.95-105.46-187.35-63.18-109.53-126.61-218-190-326.59-19.18-32.84-38.63-64.53-58-96.72-.86-1.43-1.78-2.6-2.68-3.89Z"/>
      <path class="cls-1" d="M824,1002.29c-17.53-32.76-35-65.9-52.61-98.19Q722.12,814,672.61,724.78c-29.57-53.14-59.2-106-89.07-158-52.65-91.62-105.49-182.48-158.27-273.58-4.35-7.51-8.84-14.47-13.27-21.68V231c23.65,42.82,47.2,86,71,128.38C520.13,425.65,557.28,492,594.71,557.22Q659.65,670.4,725.07,781.65c32,54.54,64.3,107.9,96.47,161.76.78,1.31,1.64,2.34,2.46,3.5Z"/>
      <path class="cls-1" d="M824,925.3c-32.46-59.21-64.83-118.8-97.42-177.52-33.3-60-66.66-119.77-100.28-178.49-48.83-85.25-97.87-169.65-146.91-254C458,278.36,436.28,242.4,414.7,206.06a29,29,0,0,0-2.7-3.44V155.34C461.82,245.55,511.57,336,561.49,425.87q37.23,67,74.94,132.08c61.8,106.33,123.76,212,185.66,318,.65,1.11,1.27,2.28,1.91,3.42Z"/>
    </g>
  </g>
</svg>